<svg xmlns="http://www.w3.org/2000/svg" viewBox="0 0 698 559" width="698" height="559">
	<style>
		tspan { white-space:pre }
		.shp0 { opacity: 0.161;fill: #ffffff } 
	</style>
	<g id="our-preferences">
		<path id="logo-shape" class="shp0" d="M398.82,456.86c-44.41,-104.34 -121.94,-97.14 -131.78,-97.19c-13.98,-0.06 -94.72,-32.84 -116.05,-32.09c-5.99,1.57 -14.45,4.92 -19.37,11.7c-17.63,24.31 19.49,47.11 24.52,50.48c24.69,16.58 92.13,33.65 92.13,33.65c4.13,-0.08 7.54,3.2 7.61,7.33c0.07,4.12 -3.21,7.53 -7.34,7.61c0,0 -57.83,-8.49 -89.12,-31.91c-6.08,-4.55 -40.42,-28.24 -48.79,-40.73c-32.96,-49.19 -37.84,-68.92 -59.84,-129.04c-3.4,-9.28 -13.48,-22.81 -32.74,-19.75c-20.45,3.25 -18.27,28.95 -17.54,36.26c7.87,79.59 57.54,173.92 121.3,218.06c48.98,33.92 97.95,54.91 196.16,60.76c58.56,3.49 123.27,26.45 123.27,26.45c0,0 -14.7,-36.54 -42.4,-101.62zM441.22,558.48c0,0 44.56,-52.24 93.53,-84.54c82.12,-54.17 114.03,-96.83 139.49,-150.7c33.14,-70.11 28.99,-176.64 -3.99,-249.5c-3.03,-6.69 -13.98,-30.05 -33.32,-22.63c-18.2,6.98 -20.17,23.74 -18.47,33.47c11,63.07 16.64,82.59 12.69,141.67c-1,15 -18.9,52.69 -21.89,59.67c-15.39,35.92 -61.23,72.19 -61.23,72.19c-3.62,2 -8.16,0.69 -10.16,-2.92c-2,-3.61 -0.69,-8.15 2.93,-10.15c0,0 49.86,-48.51 62.96,-75.21c2.67,-5.44 23.42,-43.74 -4.01,-55.98c-7.66,-3.42 -16.66,-2.08 -22.63,-0.45c-18.85,10.01 -72.38,78.77 -84.46,85.81c-8.5,4.95 -79.24,37.49 -65.53,150.05c8.55,70.2 14.09,109.2 14.09,109.2zM75.67,227.59c2.83,7.72 5.37,14.79 7.73,21.33c11.11,30.81 17.64,48.91 29.92,70.94c7.41,-8.27 17.87,-14.37 30.55,-17.76l0.4,-0.11l2.85,-0.75l2.95,-0.1c15.72,-0.56 40.64,7.3 79.83,20.3c13.68,4.54 32.24,10.7 38.12,11.75c0.1,0 0.2,0 0.31,-0.01c8.87,-0.21 35.87,-0.85 66.81,13.78c25.27,11.94 46.83,30.82 64.48,56.28c2.55,-30.87 11.79,-58 27.7,-80.98c19.49,-28.13 43.19,-41.08 50.97,-45.34c0.09,-0.05 0.18,-0.1 0.27,-0.15c4.57,-3.85 17.56,-18.47 27.14,-29.24c27.43,-30.85 45.09,-50.12 58.98,-57.5l2.61,-1.38l2.85,-0.78l0.4,-0.11c12.68,-3.4 24.78,-3.35 35.33,0.11c-0.38,-25.23 -3.78,-44.17 -9.56,-76.39c-1.23,-6.85 -2.55,-14.24 -3.97,-22.34c-2.64,-15.14 0.49,-32.59 11.45,-46c-39.72,-36.26 -93.7,-52.15 -152.7,-36.34c-63.81,17.1 -107.03,57.92 -130.66,100.9c-41.95,-25.4 -99.46,-39.23 -166.61,-21.24c-58.76,15.75 -96.44,55.95 -111.96,106.7c16.67,5.98 28.43,19.74 33.81,34.44z" />
	</g>
</svg>