<svg xmlns="http://www.w3.org/2000/svg" viewBox="0 0 30 31" width="30" height="31">
	<style>
		tspan { white-space:pre }
		.shp0 { fill: #ffffff } 
	</style>
	<g id="how-it-works">
		<g id="steps">
			<g id="step-1-search">
				<path id="Forma 1" class="shp0" d="M29.63 28.87L22.42 21.66C24.21 19.48 25.29 16.69 25.29 13.64C25.29 6.66 19.62 1 12.64 1C5.66 1 0 6.66 0 13.64C0 20.62 5.66 26.29 12.64 26.29C15.69 26.29 18.47 25.21 20.65 23.43L27.86 30.63C28.35 31.12 29.14 31.12 29.63 30.63C30.12 30.15 30.12 29.35 29.63 28.87ZM12.64 23.77C7.05 23.77 2.51 19.23 2.51 13.64C2.51 8.06 7.05 3.51 12.64 3.51C18.23 3.51 22.77 8.06 22.77 13.64C22.77 19.23 18.23 23.77 12.64 23.77Z" />
			</g>
		</g>
	</g>
</svg>