<svg xmlns="http://www.w3.org/2000/svg" viewBox="0 0 23 26" width="23" height="26">
	<style>
		tspan { white-space:pre }
		.shp0 { fill: #ffffff } 
	</style>
	<g id="how-it-works">
		<g id="steps">
			<g id="step 3-test">
				<path id="Forma 1" class="shp0" d="M20.5 3.02L21.94 3.02C22.52 3.02 22.98 2.54 22.98 1.93L22.98 1.09C22.98 0.49 22.52 0 21.94 0L2.01 0C1.44 0 0.98 0.49 0.98 1.09L0.98 1.93C0.98 2.54 1.44 3.02 2.01 3.02L3.46 3.02C3.56 7.07 5.1 10.76 7.46 12.87C5.04 15.03 3.49 18.84 3.46 23.02L2.01 23.02C1.44 23.02 0.98 23.51 0.98 24.11L0.98 24.91C0.98 25.51 1.44 26 2.01 26L21.94 26C22.52 26 22.98 25.51 22.98 24.91L22.98 24.11C22.98 23.51 22.52 23.02 21.94 23.02L20.5 23.02C20.46 18.84 18.92 15.04 16.5 12.87C18.86 10.76 20.39 7.07 20.5 3.02ZM13.78 13.78L14.17 13.99C16.79 15.35 18.56 18.93 18.61 23.02L5.35 23.02C5.4 18.93 7.17 15.35 9.79 13.99L10.17 13.79C10.51 13.62 10.72 13.25 10.72 12.86C10.72 12.47 10.51 12.11 10.17 11.93L9.79 11.74C7.23 10.42 5.48 6.93 5.35 3.02L18.61 3.02C18.48 6.93 16.73 10.42 14.17 11.74L13.78 11.93C13.45 12.11 13.24 12.46 13.24 12.86C13.24 13.25 13.45 13.61 13.78 13.78ZM7.77 22L16.74 22C16.44 19.69 14.56 17.86 12.26 17.86C9.96 17.86 8.08 19.69 7.77 22ZM15.33 9.56L8.61 9.56C9.44 10.53 10.63 11.16 11.97 11.16C13.32 11.16 14.5 10.53 15.33 9.56Z" />
			</g>
		</g>
	</g>
</svg>