<svg xmlns="http://www.w3.org/2000/svg" viewBox="0 0 22 23" width="22" height="23">
	<style>
		tspan { white-space:pre }
		.shp0 { fill: #ffffff } 
	</style>
	<g id="how-it-works">
		<g id="steps">
			<g id="step-2-select">
				<path id="Forma 1" class="shp0" d="M0.15,0.15l-0.01,0.01c-0.1,0.11 -0.14,0.28 -0.08,0.42l7.18,19.58c0.05,0.15 0.19,0.25 0.35,0.25c0.15,0 0.29,-0.09 0.35,-0.24l2.28,-5.75l7.11,7.45c0.21,0.22 0.56,0.22 0.78,0c0.76,-0.8 2.01,-2.1 2.77,-2.9c0.21,-0.22 0.21,-0.59 0,-0.81l-7.1,-7.45l5.48,-2.39c0.14,-0.06 0.23,-0.21 0.23,-0.37v0c0,-0.16 -0.1,-0.3 -0.24,-0.36l-18.69,-7.53c-0.14,-0.05 -0.3,-0.02 -0.4,0.09z" />
			</g>
		</g>
	</g>
</svg>