<svg xmlns="http://www.w3.org/2000/svg" viewBox="0 0 16 31" width="16" height="31">
	<style>
		tspan { white-space:pre }
		.shp0 { fill: #ffffff } 
	</style>
	<g id="how-it-works">
		<g id="steps">
			<g id="step-4-pay">
				<path id="Shape 1" class="shp0" d="M12.21,13.72c-1.14,-0.65 -2.34,-1.15 -3.54,-1.66c-0.69,-0.3 -1.36,-0.64 -1.94,-1.13c-1.15,-0.95 -0.93,-2.5 0.42,-3.12c0.38,-0.17 0.78,-0.23 1.19,-0.25c1.57,-0.09 3.06,0.21 4.47,0.92c0.71,0.35 0.94,0.24 1.18,-0.52c0.25,-0.81 0.46,-1.62 0.69,-2.44c0.16,-0.54 -0.04,-0.9 -0.53,-1.13c-0.91,-0.42 -1.84,-0.71 -2.82,-0.87c-1.28,-0.2 -1.28,-0.21 -1.29,-1.54c-0.01,-1.88 -0.01,-1.88 -1.82,-1.88c-0.26,0 -0.53,-0.01 -0.79,0c-0.85,0.02 -0.99,0.18 -1.02,1.07c-0.01,0.4 0,0.79 -0.01,1.2c-0.01,1.18 -0.01,1.16 -1.1,1.57c-2.63,0.99 -4.26,2.85 -4.43,5.82c-0.16,2.63 1.17,4.41 3.26,5.71c1.29,0.8 2.71,1.27 4.07,1.9c0.53,0.24 1.04,0.52 1.48,0.9c1.31,1.12 1.07,2.99 -0.48,3.69c-0.83,0.38 -1.71,0.47 -2.61,0.35c-1.39,-0.18 -2.73,-0.56 -3.98,-1.23c-0.74,-0.4 -0.95,-0.29 -1.2,0.53c-0.22,0.71 -0.41,1.43 -0.6,2.15c-0.26,0.97 -0.16,1.2 0.73,1.65c1.14,0.57 2.35,0.86 3.59,1.07c0.97,0.16 1,0.2 1.01,1.25c0.01,0.47 0.01,0.95 0.01,1.42c0.01,0.6 0.28,0.94 0.87,0.95c0.67,0.01 1.35,0.01 2.01,-0.01c0.55,-0.01 0.83,-0.32 0.83,-0.9c0,-0.64 0.03,-1.29 0.01,-1.94c-0.03,-0.66 0.25,-0.99 0.85,-1.16c1.41,-0.4 2.6,-1.18 3.52,-2.34c2.56,-3.22 1.58,-7.94 -2.04,-10.01z" />
			</g>
		</g>
	</g>
</svg>